<svg xmlns="http://www.w3.org/2000/svg" viewBox="0 0 40.58 40.58"><defs><style>.cls-1{fill:#fff;}</style></defs><g id="Camada_2" data-name="Camada 2"><g id="Camada_1-2" data-name="Camada 1"><path class="cls-1" d="M35.83,0H4.76A4.76,4.76,0,0,0,0,4.76V35.83a4.76,4.76,0,0,0,4.76,4.75H35.83a4.75,4.75,0,0,0,4.75-4.75V4.76A4.76,4.76,0,0,0,35.83,0Zm1.58,35.83a1.58,1.58,0,0,1-1.58,1.58h-9V24.49h4.9l.81-4.91H26.79V16.17a2.34,2.34,0,0,1,2.38-2.38h3.25V8.88H29.17a7.29,7.29,0,0,0-7.29,7.3v3.4H17.12v4.91h4.76V37.41H4.76a1.59,1.59,0,0,1-1.59-1.58V4.76A1.59,1.59,0,0,1,4.76,3.17H35.83a1.59,1.59,0,0,1,1.58,1.59Z"/></g></g></svg>