<svg xmlns="http://www.w3.org/2000/svg" viewBox="0 0 19.55 21.53"><defs><style>.cls-1{fill:#102c56;}</style></defs><g id="Camada_2" data-name="Camada 2"><g id="Camada_1-2" data-name="Camada 1"><path class="cls-1" d="M1.83,21.53A1.81,1.81,0,0,1,0,19.7V7.79A1.88,1.88,0,0,1,.2,7a1.84,1.84,0,0,1,.53-.64L8.67.37A1.76,1.76,0,0,1,9.19.09,1.9,1.9,0,0,1,9.77,0a1.81,1.81,0,0,1,.58.09,1.55,1.55,0,0,1,.52.28l7.94,6a1.76,1.76,0,0,1,.54.64,1.88,1.88,0,0,1,.2.83V19.7a1.83,1.83,0,0,1-1.84,1.83H12.22V13H7.33v8.55Z"/></g></g></svg>