<svg xmlns="http://www.w3.org/2000/svg" viewBox="0 0 40.58 40.58"><defs><style>.cls-1{fill:#102c56;}</style></defs><g id="Camada_2" data-name="Camada 2"><g id="Camada_1-2" data-name="Camada 1"><path class="cls-1" d="M40.47,11.93A14.69,14.69,0,0,0,39.53,7a9.86,9.86,0,0,0-2.35-3.6,10,10,0,0,0-3.59-2.34A14.69,14.69,0,0,0,28.67.13C26.5,0,25.81,0,20.3,0s-6.2,0-8.37.12A14.69,14.69,0,0,0,7,1.06a9.86,9.86,0,0,0-3.6,2.35A10,10,0,0,0,1.07,7a14.74,14.74,0,0,0-.94,4.92C0,14.1,0,14.79,0,20.3s0,6.2.12,8.36a14.63,14.63,0,0,0,.94,4.92,10,10,0,0,0,2.35,3.6A9.84,9.84,0,0,0,7,39.52a15,15,0,0,0,4.92.95c2.17.09,2.86.11,8.37.11s6.2,0,8.36-.11a15,15,0,0,0,4.93-.95,10.36,10.36,0,0,0,5.93-5.94,14.91,14.91,0,0,0,1-4.92c.09-2.16.12-2.85.12-8.36s0-6.2-.11-8.37ZM36.82,28.5a11.19,11.19,0,0,1-.7,3.77,6.7,6.7,0,0,1-3.85,3.85,11.19,11.19,0,0,1-3.77.7c-2.14.09-2.78.12-8.2.12s-6.06,0-8.19-.12a11.08,11.08,0,0,1-3.77-.7A6.21,6.21,0,0,1,6,34.61,6.29,6.29,0,0,1,4.5,32.28a11,11,0,0,1-.7-3.77c-.1-2.14-.12-2.78-.12-8.2s0-6.06.12-8.2a10.81,10.81,0,0,1,.7-3.76A6.12,6.12,0,0,1,6,6,6.32,6.32,0,0,1,8.35,4.5a11.19,11.19,0,0,1,3.76-.69c2.15-.1,2.79-.12,8.2-.12s6.07,0,8.2.12a11.26,11.26,0,0,1,3.77.69A6.24,6.24,0,0,1,34.61,6a6.29,6.29,0,0,1,1.51,2.33,11.12,11.12,0,0,1,.7,3.76c.09,2.14.12,2.79.12,8.2s0,6.05-.12,8.19Z"/><path class="cls-1" d="M20.3,9.87A10.43,10.43,0,1,0,30.72,20.3,10.43,10.43,0,0,0,20.3,9.87Zm0,17.19a6.77,6.77,0,1,1,6.76-6.76,6.77,6.77,0,0,1-6.76,6.76Z"/><path class="cls-1" d="M33.57,9.46A2.44,2.44,0,1,1,31.13,7a2.43,2.43,0,0,1,2.44,2.44Z"/></g></g></svg>