<svg xmlns="http://www.w3.org/2000/svg" viewBox="0 0 92.14 46.93"><defs><style>.cls-1{fill:#102c56;}</style></defs><g id="Camada_2" data-name="Camada 2"><g id="Camada_1-2" data-name="Camada 1"><path class="cls-1" d="M19.21,46.35V45.6a1.84,1.84,0,0,0,1.19-.37A1.9,1.9,0,0,0,20.68,44V32.67a1.9,1.9,0,0,0-.28-1.21,1.9,1.9,0,0,0-1.19-.37v-.74H24q4.54,0,4.55,3.9a3.79,3.79,0,0,1-.74,2.35,3,3,0,0,1-2.09,1.23v.05q3.39.84,3.39,3.91,0,4.56-4.39,4.56Zm3.4-14v5.14H23.7q2.86,0,2.86-3.26c0-2.11-.88-3.16-2.65-3.16a1.45,1.45,0,0,0-1,.27A1.37,1.37,0,0,0,22.61,32.37Zm0,6v5.68a2.06,2.06,0,0,0,.26,1.18A1.3,1.3,0,0,0,24,45.6c2.1,0,3.16-1.2,3.16-3.6S26,38.39,23.86,38.39Z"/><path class="cls-1" d="M35,45.6v.75H30V45.6a2,2,0,0,0,1.23-.37A1.71,1.71,0,0,0,31.54,44V32.67a1.71,1.71,0,0,0-.31-1.21A2,2,0,0,0,30,31.09v-.74h3.47V44a1.75,1.75,0,0,0,.3,1.22A2,2,0,0,0,35,45.6Z"/><path class="cls-1" d="M35.61,43A2.17,2.17,0,0,1,36,41.67a1.23,1.23,0,0,1,1.09-.6,1.34,1.34,0,0,1,1.18.69,2.47,2.47,0,0,1,.4,1.4,1.82,1.82,0,0,1-.51,1.21,3.22,3.22,0,0,0-.51.65q0,.42.72.84a2.3,2.3,0,0,0,1.09.37,2.81,2.81,0,0,0,2.16-.95,3.55,3.55,0,0,0-.95-5.12l-3.05-2a4.73,4.73,0,0,1-1.65-3.77,5.36,5.36,0,0,1,.91-3.28,3.34,3.34,0,0,1,2.88-1.37,3.71,3.71,0,0,1,2.58,1,3.17,3.17,0,0,1,1.1,2.45c0,1.1-.44,1.65-1.3,1.65A1.39,1.39,0,0,1,41,34.25,1.86,1.86,0,0,1,40.51,33a2.06,2.06,0,0,1,.2-.88l.39-.82a1,1,0,0,0-.53-.59,1.61,1.61,0,0,0-.8-.27,2.33,2.33,0,0,0-1.79.8,2.79,2.79,0,0,0-.72,1.92A3.33,3.33,0,0,0,38.72,36l2.93,1.77A5.26,5.26,0,0,1,43.79,41a4.83,4.83,0,0,1,.12,1,5.1,5.1,0,0,1-1.14,3.44,4,4,0,0,1-3.21,1.42,3.85,3.85,0,0,1-4-4Z"/><path class="cls-1" d="M45.42,36.39h-.63v-6h9.44v6h-.62v-.51q0-4.79-3-4.79h-.16V44a1.47,1.47,0,0,0,.44,1.21,3,3,0,0,0,1.3.37v.75H46.84V45.6a2.87,2.87,0,0,0,1.28-.37A1.5,1.5,0,0,0,48.54,44V31.09H48.4q-3,0-3,4.79Z"/><path class="cls-1" d="M60.65,46.35H54.47v-.73c1.16-.06,1.74-.62,1.74-1.67V34.14a6.2,6.2,0,0,0-.23-2,1.57,1.57,0,0,0-1.63-1v-.72h3.51v3.32h0a6.35,6.35,0,0,1,1.14-2.39,2.82,2.82,0,0,1,2.18-1.35,1.89,1.89,0,0,1,1.68.9,3.28,3.28,0,0,1,.51,1.84c0,1.46-.46,2.19-1.39,2.19s-1.35-.62-1.35-1.86.42-1.77,1.28-1.77a.85.85,0,0,0-.77-.4c-1,0-1.83,1.07-2.42,3.21a16.88,16.88,0,0,0-.63,4.45V44c0,1.07.84,1.63,2.51,1.67Z"/><path class="cls-1" d="M63.42,38.35a13,13,0,0,1,1.07-5.24C65.4,31,66.67,30,68.28,30s2.88,1.05,3.79,3.14a13.34,13.34,0,0,1,0,10.47c-.91,2.09-2.18,3.14-3.79,3.14s-2.88-1-3.79-3.14A12.94,12.94,0,0,1,63.42,38.35Zm2.26,0c0,5,.86,7.48,2.6,7.48s2.63-2.49,2.63-7.48-.88-7.49-2.63-7.49S65.68,33.35,65.68,38.35Z"/><polygon class="cls-1" points="65.75 29.51 67.93 25.6 69.05 25.6 71.26 29.51 70.63 29.51 68.51 26.9 66.4 29.51 65.75 29.51"/><path class="cls-1" d="M25.7,22.63v.84H20.05v-.84a2.25,2.25,0,0,0,1.39-.42,2,2,0,0,0,.34-1.37V8a2,2,0,0,0-.34-1.37c-.23-.23-.5-.12-1.2-.17l-.19-1.09H24V20.84a2,2,0,0,0,.34,1.38A2.32,2.32,0,0,0,25.7,22.63Z"/><path class="cls-1" d="M32.81,23.47H26.57v-.81c1.37-.07,2.05-.71,2.05-1.9V8.16c0-.83-.15-1.36-.47-1.61a3.54,3.54,0,0,0-1.66-.37V5.37h4.05v3h.06a7,7,0,0,1,1.71-2.69,3.44,3.44,0,0,1,2.31-.79A3.19,3.19,0,0,1,37.39,6a6.89,6.89,0,0,1,.81,3.85V20.76a1.9,1.9,0,0,0,.46,1.45,2.37,2.37,0,0,0,1.54.45v.81H36.07V9.58c0-2.21-.63-3.32-1.89-3.32s-2,.83-2.69,2.48a10.28,10.28,0,0,0-.76,3.89v8.13c0,1.19.69,1.83,2.08,1.9Z"/><path class="cls-1" d="M46.46,22.63v.84H40.81v-.84a2.25,2.25,0,0,0,1.39-.42,2,2,0,0,0,.34-1.37V8a2,2,0,0,0-.34-1.37,2.25,2.25,0,0,0-1.39-.42V5.37h3.92V20.84a2,2,0,0,0,.34,1.38A2.32,2.32,0,0,0,46.46,22.63Z"/><path class="cls-1" d="M56.57,17h.79a10.93,10.93,0,0,1-1.21,4.61,4.13,4.13,0,0,1-3.71,2.29q-2.88,0-4.29-3.45a15.85,15.85,0,0,1-1.06-6,14.1,14.1,0,0,1,1.29-6.13C49.47,6,51,4.89,52.91,4.89A3.79,3.79,0,0,1,56,6.45,5.43,5.43,0,0,1,57.2,9.89c0,1.81-.43,2.72-1.45,2.74a1.4,1.4,0,0,1-1.2-.72A2.72,2.72,0,0,1,54,10.37a3.57,3.57,0,0,1,.36-1.62,1.08,1.08,0,0,1,1-.72,1.34,1.34,0,0,1,.56.13A2.62,2.62,0,0,0,53.38,6q-3.65,0-3.65,8.31A30.43,30.43,0,0,0,50,19.47q.69,3.42,2.79,3.42C54.83,22.89,56.08,20.94,56.57,17Z"/><path class="cls-1" d="M63.78,22.63v.84H58.12v-.84a2.22,2.22,0,0,0,1.39-.42,2,2,0,0,0,.35-1.37V8a2,2,0,0,0-.35-1.37,2.22,2.22,0,0,0-1.39-.42V5.37H62V20.84a2,2,0,0,0,.34,1.38A2.33,2.33,0,0,0,63.78,22.63Z"/><path class="cls-1" d="M76,20.68a2.15,2.15,0,0,0,.45,1.61,3.68,3.68,0,0,0,1.68.37v.81h-4v-3H74a7,7,0,0,1-1.69,2.69,3.44,3.44,0,0,1-2.31.78,3.15,3.15,0,0,1-2.76-1.14A6.79,6.79,0,0,1,66.46,19V8.08A1.88,1.88,0,0,0,66,6.63a2.37,2.37,0,0,0-1.54-.45V5.37h4.11V19.26c0,2.21.63,3.32,1.89,3.32s2-.83,2.71-2.48a10.66,10.66,0,0,0,.74-3.89V8.08c0-1.19-.69-1.83-2.06-1.9V5.37H76Z"/><path class="cls-1" d="M41.52,4.42h-.77L43.49.89C44,.3,44.35,0,44.65,0a.64.64,0,0,1,.5.26.89.89,0,0,1,.21.56,1.13,1.13,0,0,1-.48.92Z"/><path class="cls-1" d="M13.6,5.37h6.8l.11,1.09a4.72,4.72,0,0,0-1.71,1,5,5,0,0,0-1,2.17L11,35H9.65L2.27,8.34a2,2,0,0,0-.76-1.23A6.06,6.06,0,0,0,0,6.73V5.37H8.89V6.73A7.74,7.74,0,0,0,7.11,7a1.46,1.46,0,0,0-.93,1.49,20.31,20.31,0,0,0,.67,2.94l4.53,16.83h.09L15.6,12.77a16.24,16.24,0,0,0,.63-3.83,1.87,1.87,0,0,0-.72-1.7,5.65,5.65,0,0,0-1.91-.51Z"/><path class="cls-1" d="M77.75,27.8a3.91,3.91,0,0,1,.6-2.22,2.17,2.17,0,0,1,1.9-1,2.32,2.32,0,0,1,2,1.21A4.28,4.28,0,0,1,83,28.16a3.16,3.16,0,0,1-.89,2.1,5.42,5.42,0,0,0-.88,1.13c0,.48.41,1,1.24,1.45a4.11,4.11,0,0,0,1.9.65,4.9,4.9,0,0,0,3.75-1.66A6.15,6.15,0,0,0,86.46,23l-5.29-3.5a8.21,8.21,0,0,1-2.86-6.53,9.45,9.45,0,0,1,1.57-5.69,5.84,5.84,0,0,1,5-2.38,6.52,6.52,0,0,1,4.48,1.7,5.45,5.45,0,0,1,1.89,4.23c0,1.91-.75,2.86-2.25,2.86a2.45,2.45,0,0,1-2-.93,3.29,3.29,0,0,1-.77-2.17A3.38,3.38,0,0,1,86.6,9c.22-.47.45-.95.66-1.43a1.7,1.7,0,0,0-.9-1A2.86,2.86,0,0,0,85,6.11a4,4,0,0,0-3.1,1.39,4.84,4.84,0,0,0-1.25,3.33,5.77,5.77,0,0,0,2.54,4.88l5.08,3.06a9.15,9.15,0,0,1,3.71,5.69,8.72,8.72,0,0,1,.2,1.81,8.83,8.83,0,0,1-2,6A6.93,6.93,0,0,1,84.6,34.7a6.68,6.68,0,0,1-6.85-6.9Z"/><circle class="cls-1" cx="77.11" cy="39.49" r="1.33"/><circle class="cls-1" cx="16.51" cy="39.49" r="1.33"/></g></g></svg>