<svg xmlns="http://www.w3.org/2000/svg" viewBox="0 0 226.32 115.26"><defs><style>.cls-1{fill:#fff;}</style></defs><g id="Camada_2" data-name="Camada 2"><g id="Camada_1-2" data-name="Camada 1"><path class="cls-1" d="M47.19,113.84V112a4.57,4.57,0,0,0,2.91-.92,4.52,4.52,0,0,0,.69-3V80.25a4.52,4.52,0,0,0-.69-3,4.57,4.57,0,0,0-2.91-.92V74.54H59q11.21,0,11.2,9.59a9.39,9.39,0,0,1-1.83,5.77,7.29,7.29,0,0,1-5.14,3V93q8.34,2.05,8.34,9.6,0,11.19-10.8,11.2ZM55.53,79.5V92.13h2.68q7,0,7-8,0-7.77-6.51-7.77a3.66,3.66,0,0,0-2.52.66A3.47,3.47,0,0,0,55.53,79.5Zm0,14.8v13.94a5,5,0,0,0,.65,2.91,3.25,3.25,0,0,0,2.66.86q7.77,0,7.77-8.86t-8-8.85Z"/><path class="cls-1" d="M86,112v1.83H73.69V112a5,5,0,0,0,3-.92,4.31,4.31,0,0,0,.74-3V80.25a4.31,4.31,0,0,0-.74-3,5,5,0,0,0-3-.92V74.54H82.2v33.58q0,2.3.75,3A5.09,5.09,0,0,0,86,112Z"/><path class="cls-1" d="M87.46,105.5a5.48,5.48,0,0,1,.85-3.15A3.05,3.05,0,0,1,91,100.87a3.3,3.3,0,0,1,2.91,1.71,6.12,6.12,0,0,1,1,3.43,4.48,4.48,0,0,1-1.25,3,8,8,0,0,0-1.26,1.6c0,.69.59,1.37,1.77,2.06a5.72,5.72,0,0,0,2.69.91,6.94,6.94,0,0,0,5.31-2.34,8.46,8.46,0,0,0,1.71-5.49q0-4.22-4-7.08l-7.49-5a11.6,11.6,0,0,1-4-9.25,13.28,13.28,0,0,1,2.23-8.06A8.22,8.22,0,0,1,97.57,73a9.2,9.2,0,0,1,6.34,2.4,7.71,7.71,0,0,1,2.68,6c0,2.7-1.06,4.06-3.19,4.06a3.45,3.45,0,0,1-2.8-1.32,4.64,4.64,0,0,1-1.09-3.08A4.81,4.81,0,0,1,100,78.9c.32-.66.63-1.34.94-2a2.41,2.41,0,0,0-1.29-1.46,4,4,0,0,0-2-.66,5.69,5.69,0,0,0-4.4,2,6.84,6.84,0,0,0-1.77,4.72,8.17,8.17,0,0,0,3.6,6.91l7.2,4.34a13,13,0,0,1,5.26,8,12.17,12.17,0,0,1,.28,2.57,12.5,12.5,0,0,1-2.8,8.46,9.85,9.85,0,0,1-7.88,3.48,9.47,9.47,0,0,1-9.71-9.76Z"/><path class="cls-1" d="M111.56,89.39H110V74.54h23.19V89.39h-1.54V88.13q0-11.76-7.25-11.77H124v31.76a3.58,3.58,0,0,0,1.08,3,7.27,7.27,0,0,0,3.2.92v1.83H115.05V112a6.78,6.78,0,0,0,3.14-.92,3.7,3.7,0,0,0,1-3V76.36h-.35q-7.31,0-7.31,11.77Z"/><path class="cls-1" d="M149,113.84h-15.2v-1.78q4.29-.23,4.29-4.11V83.85a14.9,14.9,0,0,0-.57-5c-.61-1.64-1.95-2.48-4-2.51V74.54h8.62V82.7h.12a15.77,15.77,0,0,1,2.8-5.88q2.51-3.31,5.37-3.31a4.59,4.59,0,0,1,4.11,2.22,8,8,0,0,1,1.26,4.52c0,3.58-1.15,5.37-3.43,5.37S149,84.09,149,81.05s1.05-4.34,3.15-4.34a2,2,0,0,0-1.89-1q-3.76,0-5.94,7.89a41.35,41.35,0,0,0-1.54,10.91V108c0,2.63,2.05,4,6.17,4.11Z"/><path class="cls-1" d="M155.77,94.18a31.73,31.73,0,0,1,2.63-12.85q3.38-7.71,9.31-7.71T177,81.33A32.73,32.73,0,0,1,177,107q-3.36,7.71-9.31,7.71T158.4,107A31.74,31.74,0,0,1,155.77,94.18Zm5.54,0q0,18.41,6.4,18.4t6.46-18.4q0-18.39-6.46-18.39T161.31,94.18Z"/><polygon class="cls-1" points="161.49 72.48 166.86 62.88 169.6 62.88 175.02 72.48 173.48 72.48 168.28 66.08 163.09 72.48 161.49 72.48"/><path class="cls-1" d="M63.13,55.58v2.07H49.24V55.58c1.72-.13,2.86-.47,3.42-1s.84-1.68.84-3.36V19.65q0-2.52-.84-3.36c-.56-.56-1.22-.29-2.94-.42l-.48-2.69h9.63v38q0,2.58.84,3.39A5.77,5.77,0,0,0,63.13,55.58Z"/><path class="cls-1" d="M80.58,57.65H65.26v-2q5.05-.27,5-4.66V20c0-2-.39-3.33-1.17-3.94-.6-.47-2-.77-4.07-.9v-2H75v7.37h.13A17.72,17.72,0,0,1,79.35,14,8.46,8.46,0,0,1,85,12q4.78,0,6.79,2.81c1.33,1.88,2,5,2,9.47V51A4.69,4.69,0,0,0,95,54.55a5.83,5.83,0,0,0,3.78,1.1v2H88.6V23.53q0-8.14-4.66-8.15-4.14,0-6.59,6.08A25.35,25.35,0,0,0,75.48,31V51q0,4.4,5.1,4.66Z"/><path class="cls-1" d="M114.12,55.58v2.07H100.23V55.58c1.72-.13,2.86-.47,3.42-1s.84-1.68.84-3.36V19.65q0-2.52-.84-3.36a5.6,5.6,0,0,0-3.42-1V13.18h9.63v38q0,2.58.84,3.39A5.77,5.77,0,0,0,114.12,55.58Z"/><path class="cls-1" d="M138.94,41.82h1.94a26.43,26.43,0,0,1-3,11.31q-3.3,5.61-9.12,5.62-7,0-10.53-8.47a38.92,38.92,0,0,1-2.58-14.86,34.66,34.66,0,0,1,3.16-15.06Q122.85,12,130,12a9.32,9.32,0,0,1,7.69,3.81,13.47,13.47,0,0,1,2.84,8.47q.19,6.66-3.55,6.72A3.38,3.38,0,0,1,134,29.24a6.58,6.58,0,0,1-1.26-3.78,8.9,8.9,0,0,1,.87-4A2.67,2.67,0,0,1,136,19.71a3.36,3.36,0,0,1,1.36.32q-1.68-5.3-6.27-5.29-9,0-9,20.42a75.39,75.39,0,0,0,.77,12.67q1.68,8.4,6.85,8.4Q137.14,56.23,138.94,41.82Z"/><path class="cls-1" d="M156.65,55.58v2.07h-13.9V55.58c1.73-.13,2.87-.47,3.43-1s.84-1.68.84-3.36V19.65q0-2.52-.84-3.36a5.61,5.61,0,0,0-3.43-1V13.18h9.63v38q0,2.58.84,3.39A5.81,5.81,0,0,0,156.65,55.58Z"/><path class="cls-1" d="M186.77,50.8c0,2,.36,3.29,1.09,3.94.65.48,2,.78,4.14.91v2h-9.95V50.28h-.2c-1.25,3.1-2.62,5.3-4.13,6.59A8.41,8.41,0,0,1,172,58.81c-3.19,0-5.45-.93-6.79-2.81s-2-5-2-9.47V19.84a4.66,4.66,0,0,0-1.13-3.55,5.73,5.73,0,0,0-3.78-1.1v-2h10.08V47.31q0,8.14,4.65,8.14c2.81,0,5-2,6.66-6.07a26.14,26.14,0,0,0,1.81-9.57v-20q0-4.39-5-4.65v-2H186.7Z"/><path class="cls-1" d="M102,10.86H100.1l6.72-8.66C108,.73,108.93,0,109.66,0a1.53,1.53,0,0,1,1.23.65A2.11,2.11,0,0,1,111.41,2a2.79,2.79,0,0,1-1.16,2.27Z"/><path class="cls-1" d="M33.41,13.18H50.12l.26,2.69a11.39,11.39,0,0,0-4.19,2.43c-.95,1-1.75,2.75-2.41,5.33L27.08,85.87H23.69L5.57,20.5a4.72,4.72,0,0,0-1.86-3A14.84,14.84,0,0,0,0,16.53V13.18H21.84v3.35a18.38,18.38,0,0,0-4.37.62,3.59,3.59,0,0,0-2.29,3.66A51,51,0,0,0,16.81,28L28,69.37h.22l10.15-38A40.25,40.25,0,0,0,39.85,22c0-2-.58-3.41-1.74-4.18a14.37,14.37,0,0,0-4.7-1.25Z"/><path class="cls-1" d="M191,68.29a9.48,9.48,0,0,1,1.48-5.45,5.29,5.29,0,0,1,4.66-2.57,5.72,5.72,0,0,1,5,3,10.57,10.57,0,0,1,1.69,5.94,7.76,7.76,0,0,1-2.18,5.15,13.93,13.93,0,0,0-2.18,2.77q0,1.79,3.07,3.57a10,10,0,0,0,4.66,1.58q5.94-.19,9.2-4.06a14.62,14.62,0,0,0,3-9.51q0-7.32-7-12.27-6.43-4.26-13-8.62-7-6-7-16,0-8.71,3.86-14Q200.47,12,208.49,12a15.91,15.91,0,0,1,11,4.16,13.33,13.33,0,0,1,4.66,10.39q0,7-5.55,7a6,6,0,0,1-4.85-2.27,8.16,8.16,0,0,1-1.88-5.35,8.45,8.45,0,0,1,.84-3.72c.56-1.15,1.1-2.32,1.63-3.51a4.18,4.18,0,0,0-2.22-2.52A7,7,0,0,0,208.69,15a9.83,9.83,0,0,0-7.62,3.41A11.79,11.79,0,0,0,198,26.6a14.16,14.16,0,0,0,6.23,12l12.48,7.53a22.43,22.43,0,0,1,9.11,14,20.93,20.93,0,0,1,.5,4.45q0,9-4.86,14.66a17,17,0,0,1-13.66,6A16.41,16.41,0,0,1,191,68.29Z"/><circle class="cls-1" cx="189.4" cy="97" r="3.27"/><circle class="cls-1" cx="40.56" cy="97" r="3.27"/></g></g></svg>